{
	"patcher" : 	{
		"fileversion" : 1,
		"appversion" : 		{
			"major" : 8,
			"minor" : 6,
			"revision" : 4,
			"architecture" : "x64",
			"modernui" : 1
		}
,
		"classnamespace" : "box",
		"rect" : [ 34.0, 77.0, 1468.0, 705.0 ],
		"bglocked" : 0,
		"openinpresentation" : 0,
		"default_fontsize" : 12.0,
		"default_fontface" : 0,
		"default_fontname" : "Arial",
		"gridonopen" : 1,
		"gridsize" : [ 15.0, 15.0 ],
		"gridsnaponopen" : 1,
		"objectsnaponopen" : 1,
		"statusbarvisible" : 2,
		"toolbarvisible" : 1,
		"lefttoolbarpinned" : 0,
		"toptoolbarpinned" : 0,
		"righttoolbarpinned" : 0,
		"bottomtoolbarpinned" : 0,
		"toolbars_unpinned_last_save" : 0,
		"tallnewobj" : 0,
		"boxanimatetime" : 200,
		"enablehscroll" : 1,
		"enablevscroll" : 1,
		"devicewidth" : 0.0,
		"description" : "",
		"digest" : "",
		"tags" : "",
		"style" : "",
		"subpatcher_template" : "",
		"assistshowspatchername" : 0,
		"boxes" : [ 			{
				"box" : 				{
					"autosave" : 1,
					"id" : "obj-22",
					"inletInfo" : 					{
						"IOInfo" : [  ]
					}
,
					"maxclass" : "newobj",
					"numinlets" : 1,
					"numoutlets" : 1,
					"outletInfo" : 					{
						"IOInfo" : [  ]
					}
,
					"outlettype" : [ "list" ],
					"patching_rect" : [ 554.0, 551.0, 138.0, 22.0 ],
					"rnboattrcache" : 					{
						"micGain" : 						{
							"label" : "micGain",
							"isEnum" : 0,
							"parsestring" : ""
						}
,
						"cutoffFreq" : 						{
							"label" : "cutoffFreq",
							"isEnum" : 0,
							"parsestring" : ""
						}
,
						"lowThresh" : 						{
							"label" : "lowThresh",
							"isEnum" : 0,
							"parsestring" : ""
						}
,
						"hiThresh" : 						{
							"label" : "hiThresh",
							"isEnum" : 0,
							"parsestring" : ""
						}
,
						"initSustainGrave" : 						{
							"label" : "initSustainGrave",
							"isEnum" : 0,
							"parsestring" : ""
						}
,
						"endSustainGrave" : 						{
							"label" : "endSustainGrave",
							"isEnum" : 0,
							"parsestring" : ""
						}
,
						"initSustainAgudo" : 						{
							"label" : "initSustainAgudo",
							"isEnum" : 0,
							"parsestring" : ""
						}
,
						"endSustainAgudo" : 						{
							"label" : "endSustainAgudo",
							"isEnum" : 0,
							"parsestring" : ""
						}
,
						"micLevelRMSupdateTime" : 						{
							"label" : "micLevelRMSupdateTime",
							"isEnum" : 0,
							"parsestring" : ""
						}
,
						"manualSamplerLevel" : 						{
							"label" : "manualSamplerLevel",
							"isEnum" : 0,
							"parsestring" : ""
						}

					}
,
					"rnboversion" : "1.3.1",
					"saved_attribute_attributes" : 					{
						"valueof" : 						{
							"parameter_invisible" : 1,
							"parameter_longname" : "rnbo~",
							"parameter_modmode" : 0,
							"parameter_shortname" : "rnbo~",
							"parameter_type" : 3
						}

					}
,
					"saved_object_attributes" : 					{
						"optimization" : "O1",
						"parameter_enable" : 1,
						"uuid" : "5aad2df3-c3be-11ef-adf3-e073e7c8b1b3"
					}
,
					"snapshot" : 					{
						"filetype" : "C74Snapshot",
						"version" : 2,
						"minorversion" : 0,
						"name" : "snapshotlist",
						"origin" : "rnbo~",
						"type" : "list",
						"subtype" : "Undefined",
						"embed" : 1,
						"snapshot" : 						{
							"endSustainAgudo" : 							{
								"value" : 0.0
							}
,
							"initSustainGrave" : 							{
								"value" : 0.0
							}
,
							"__presetid" : "samplerMAPA_v2",
							"micGain" : 							{
								"value" : 6.0
							}
,
							"hiThresh" : 							{
								"value" : 0.3
							}
,
							"endSustainGrave" : 							{
								"value" : 0.0
							}
,
							"cutoffFreq" : 							{
								"value" : 16.0
							}
,
							"lowThresh" : 							{
								"value" : 0.05
							}
,
							"initSustainAgudo" : 							{
								"value" : 0.0
							}
,
							"micLevelRMSupdateTime" : 							{
								"value" : 200.0
							}
,
							"manualSamplerLevel" : 							{
								"value" : 1.0
							}
,
							"__sps" : 							{
								"filtroNOTEON-OFF[3]" : 								{

								}
,
								"samplerSilbatoNotaGrave[1]" : 								{
									"__sps" : 									{
										"seccionSustain" : 										{

										}

									}

								}
,
								"samplerSilbatoNotaAguda[1]" : 								{
									"__sps" : 									{
										"seccionSustain" : 										{

										}

									}

								}
,
								"filtroNOTEON-OFF" : 								{

								}
,
								"filtroNOTEON-OFF[2]" : 								{

								}
,
								"samplerSilbatoNotaGrave" : 								{
									"__sps" : 									{
										"seccionSustain" : 										{

										}

									}

								}
,
								"filtroNOTEON-OFF[1]" : 								{

								}
,
								"samplerSilbatoNotaAguda" : 								{
									"__sps" : 									{
										"seccionSustain" : 										{

										}

									}

								}

							}

						}
,
						"snapshotlist" : 						{
							"current_snapshot" : 0,
							"entries" : [ 								{
									"filetype" : "C74Snapshot",
									"version" : 2,
									"minorversion" : 0,
									"name" : "samplerMAPA_v2",
									"origin" : "samplerMAPA_v2",
									"type" : "rnbo",
									"subtype" : "",
									"embed" : 0,
									"snapshot" : 									{
										"endSustainAgudo" : 										{
											"value" : 0.0
										}
,
										"initSustainGrave" : 										{
											"value" : 0.0
										}
,
										"__presetid" : "samplerMAPA_v2",
										"micGain" : 										{
											"value" : 6.0
										}
,
										"hiThresh" : 										{
											"value" : 0.3
										}
,
										"endSustainGrave" : 										{
											"value" : 0.0
										}
,
										"cutoffFreq" : 										{
											"value" : 16.0
										}
,
										"lowThresh" : 										{
											"value" : 0.05
										}
,
										"initSustainAgudo" : 										{
											"value" : 0.0
										}
,
										"micLevelRMSupdateTime" : 										{
											"value" : 200.0
										}
,
										"manualSamplerLevel" : 										{
											"value" : 1.0
										}
,
										"__sps" : 										{
											"filtroNOTEON-OFF[3]" : 											{

											}
,
											"samplerSilbatoNotaGrave[1]" : 											{
												"__sps" : 												{
													"seccionSustain" : 													{

													}

												}

											}
,
											"samplerSilbatoNotaAguda[1]" : 											{
												"__sps" : 												{
													"seccionSustain" : 													{

													}

												}

											}
,
											"filtroNOTEON-OFF" : 											{

											}
,
											"filtroNOTEON-OFF[2]" : 											{

											}
,
											"samplerSilbatoNotaGrave" : 											{
												"__sps" : 												{
													"seccionSustain" : 													{

													}

												}

											}
,
											"filtroNOTEON-OFF[1]" : 											{

											}
,
											"samplerSilbatoNotaAguda" : 											{
												"__sps" : 												{
													"seccionSustain" : 													{

													}

												}

											}

										}

									}
,
									"fileref" : 									{
										"name" : "samplerMAPA_v2",
										"filename" : "samplerMAPA_v2.maxsnap",
										"filepath" : "~/Documents/Max 8/Snapshots",
										"filepos" : -1,
										"snapshotfileid" : "b930c2a06551a7a08de1a50dc3f1dbf2"
									}

								}
 ]
						}

					}
,
					"text" : "rnbo~ samplerMAPA_v2",
					"varname" : "rnbo~"
				}

			}
, 			{
				"box" : 				{
					"format" : 6,
					"id" : "obj-5",
					"maxclass" : "flonum",
					"numinlets" : 1,
					"numoutlets" : 2,
					"outlettype" : [ "", "bang" ],
					"parameter_enable" : 0,
					"patching_rect" : [ 1612.0, 264.0, 50.0, 22.0 ]
				}

			}
, 			{
				"box" : 				{
					"format" : 6,
					"id" : "obj-6",
					"maxclass" : "flonum",
					"numinlets" : 1,
					"numoutlets" : 2,
					"outlettype" : [ "", "bang" ],
					"parameter_enable" : 0,
					"patching_rect" : [ 1514.0, 264.0, 50.0, 22.0 ]
				}

			}
, 			{
				"box" : 				{
					"buffername" : "sampleSilbatoAgudo",
					"id" : "obj-7",
					"maxclass" : "waveform~",
					"numinlets" : 5,
					"numoutlets" : 6,
					"outlettype" : [ "float", "float", "float", "float", "list", "" ],
					"patching_rect" : [ 1317.0, 122.0, 511.0, 126.0 ],
					"setmode" : 2,
					"snapto" : 2
				}

			}
, 			{
				"box" : 				{
					"attr" : "snapto",
					"id" : "obj-9",
					"maxclass" : "attrui",
					"numinlets" : 1,
					"numoutlets" : 1,
					"outlettype" : [ "" ],
					"parameter_enable" : 0,
					"patching_rect" : [ 1317.0, 92.0, 150.0, 22.0 ]
				}

			}
, 			{
				"box" : 				{
					"attr" : "setmode",
					"id" : "obj-11",
					"maxclass" : "attrui",
					"numinlets" : 1,
					"numoutlets" : 1,
					"outlettype" : [ "" ],
					"parameter_enable" : 0,
					"patching_rect" : [ 1470.0, 92.0, 150.0, 22.0 ]
				}

			}
, 			{
				"box" : 				{
					"id" : "obj-1",
					"maxclass" : "newobj",
					"numinlets" : 1,
					"numoutlets" : 1,
					"outlettype" : [ "bang" ],
					"patching_rect" : [ 324.5, 1.0, 58.0, 22.0 ],
					"text" : "loadbang"
				}

			}
, 			{
				"box" : 				{
					"id" : "obj-42",
					"maxclass" : "message",
					"numinlets" : 2,
					"numoutlets" : 1,
					"outlettype" : [ "" ],
					"patching_rect" : [ 1041.0, 44.0, 81.0, 22.0 ],
					"text" : "normalize 0.4"
				}

			}
, 			{
				"box" : 				{
					"id" : "obj-40",
					"maxclass" : "message",
					"numinlets" : 2,
					"numoutlets" : 1,
					"outlettype" : [ "" ],
					"patching_rect" : [ 941.0, 44.0, 81.0, 22.0 ],
					"text" : "normalize 0.2"
				}

			}
, 			{
				"box" : 				{
					"format" : 6,
					"id" : "obj-26",
					"maxclass" : "flonum",
					"numinlets" : 1,
					"numoutlets" : 2,
					"outlettype" : [ "", "bang" ],
					"parameter_enable" : 0,
					"patching_rect" : [ 1068.200000000000045, 264.0, 50.0, 22.0 ]
				}

			}
, 			{
				"box" : 				{
					"format" : 6,
					"id" : "obj-19",
					"maxclass" : "flonum",
					"numinlets" : 1,
					"numoutlets" : 2,
					"outlettype" : [ "", "bang" ],
					"parameter_enable" : 0,
					"patching_rect" : [ 969.799999999999955, 264.0, 50.0, 22.0 ]
				}

			}
, 			{
				"box" : 				{
					"buffername" : "sampleSilbatoGrave",
					"id" : "obj-16",
					"maxclass" : "waveform~",
					"numinlets" : 5,
					"numoutlets" : 6,
					"outlettype" : [ "float", "float", "float", "float", "list", "" ],
					"patching_rect" : [ 773.0, 122.0, 511.0, 126.0 ],
					"setmode" : 2,
					"snapto" : 2
				}

			}
, 			{
				"box" : 				{
					"id" : "obj-13",
					"maxclass" : "ezdac~",
					"numinlets" : 2,
					"numoutlets" : 0,
					"patching_rect" : [ 799.0, 589.0, 45.0, 45.0 ]
				}

			}
, 			{
				"box" : 				{
					"annotation" : "",
					"clip_size" : 1,
					"display_range" : [ -70.0, 30.0 ],
					"id" : "obj-14",
					"lastchannelcount" : 0,
					"maxclass" : "live.gain~",
					"numinlets" : 2,
					"numoutlets" : 5,
					"orientation" : 1,
					"outlettype" : [ "signal", "signal", "", "float", "list" ],
					"parameter_enable" : 1,
					"patching_rect" : [ 799.0, 499.0, 147.0, 47.0 ],
					"prototypename" : "M4L.live.gain~.H.extended",
					"saved_attribute_attributes" : 					{
						"valueof" : 						{
							"parameter_initial" : [ 0.0 ],
							"parameter_initial_enable" : 1,
							"parameter_linknames" : 1,
							"parameter_longname" : "live.gain~[1]",
							"parameter_mmax" : 30.0,
							"parameter_mmin" : -70.0,
							"parameter_modmode" : 0,
							"parameter_shortname" : "Gain",
							"parameter_type" : 0,
							"parameter_unitstyle" : 4
						}

					}
,
					"varname" : "live.gain~[1]"
				}

			}
, 			{
				"box" : 				{
					"autosave" : 1,
					"id" : "obj-8",
					"inletInfo" : 					{
						"IOInfo" : [ 							{
								"type" : "signal",
								"index" : 1,
								"tag" : "in1",
								"comment" : ""
							}
 ]
					}
,
					"maxclass" : "newobj",
					"numinlets" : 1,
					"numoutlets" : 4,
					"outletInfo" : 					{
						"IOInfo" : [ 							{
								"type" : "signal",
								"index" : 1,
								"tag" : "out1",
								"comment" : ""
							}
, 							{
								"type" : "signal",
								"index" : 2,
								"tag" : "out2",
								"comment" : ""
							}
, 							{
								"type" : "event",
								"index" : 3,
								"tag" : "out3",
								"comment" : ""
							}
 ]
					}
,
					"outlettype" : [ "signal", "signal", "", "list" ],
					"patching_rect" : [ 799.0, 445.0, 142.0, 22.0 ],
					"rnboattrcache" : 					{
						"endSustainAgudo" : 						{
							"label" : "endSustainAgudo",
							"isEnum" : 0,
							"parsestring" : ""
						}
,
						"initSustainGrave" : 						{
							"label" : "initSustainGrave",
							"isEnum" : 0,
							"parsestring" : ""
						}
,
						"initSustainAgudo" : 						{
							"label" : "initSustainAgudo",
							"isEnum" : 0,
							"parsestring" : ""
						}
,
						"cutoffFreq" : 						{
							"label" : "cutoffFreq",
							"isEnum" : 0,
							"parsestring" : ""
						}
,
						"lowThresh" : 						{
							"label" : "lowThresh",
							"isEnum" : 0,
							"parsestring" : ""
						}
,
						"micGain" : 						{
							"label" : "micGain",
							"isEnum" : 0,
							"parsestring" : ""
						}
,
						"endSustainGrave" : 						{
							"label" : "endSustainGrave",
							"isEnum" : 0,
							"parsestring" : ""
						}
,
						"micLevelRMSupdateTime" : 						{
							"label" : "micLevelRMSupdateTime",
							"isEnum" : 0,
							"parsestring" : ""
						}
,
						"hiThresh" : 						{
							"label" : "hiThresh",
							"isEnum" : 0,
							"parsestring" : ""
						}

					}
,
					"rnboversion" : "1.3.1",
					"saved_attribute_attributes" : 					{
						"valueof" : 						{
							"parameter_invisible" : 1,
							"parameter_longname" : "rnbo~[1]",
							"parameter_modmode" : 0,
							"parameter_shortname" : "rnbo~[1]",
							"parameter_type" : 3
						}

					}
,
					"saved_object_attributes" : 					{
						"optimization" : "O1",
						"parameter_enable" : 1,
						"uuid" : "d06b8731-c163-11ef-8731-e073e7c8b1b3"
					}
,
					"snapshot" : 					{
						"filetype" : "C74Snapshot",
						"version" : 2,
						"minorversion" : 0,
						"name" : "snapshotlist",
						"origin" : "rnbo~",
						"type" : "list",
						"subtype" : "Undefined",
						"embed" : 1,
						"snapshot" : 						{
							"endSustainAgudo" : 							{
								"value" : 2664.195103520160956
							}
,
							"initSustainGrave" : 							{
								"value" : 285.102050680979687
							}
,
							"__presetid" : "silbatoSampler_v3",
							"micGain" : 							{
								"value" : 0.0
							}
,
							"hiThresh" : 							{
								"value" : 0.3
							}
,
							"endSustainGrave" : 							{
								"value" : 4868.68497571482294
							}
,
							"cutoffFreq" : 							{
								"value" : 16.0
							}
,
							"lowThresh" : 							{
								"value" : 0.05
							}
,
							"initSustainAgudo" : 							{
								"value" : 306.235838260290393
							}
,
							"micLevelRMSupdateTime" : 							{
								"value" : 200.0
							}
,
							"__sps" : 							{
								"filtroNOTEON-OFF[3]" : 								{

								}
,
								"samplerSilbatoNotaGrave[1]" : 								{
									"__sps" : 									{
										"seccionSustain" : 										{

										}

									}

								}
,
								"samplerSilbatoNotaAguda[1]" : 								{
									"__sps" : 									{
										"seccionSustain" : 										{

										}

									}

								}
,
								"filtroNOTEON-OFF[2]" : 								{

								}

							}

						}
,
						"snapshotlist" : 						{
							"current_snapshot" : 0,
							"entries" : [ 								{
									"filetype" : "C74Snapshot",
									"version" : 2,
									"minorversion" : 0,
									"name" : "silbatoSampler_v3",
									"origin" : "silbatoSampler_v3",
									"type" : "rnbo",
									"subtype" : "",
									"embed" : 0,
									"snapshot" : 									{
										"endSustainAgudo" : 										{
											"value" : 2664.195103520160956
										}
,
										"initSustainGrave" : 										{
											"value" : 285.102050680979687
										}
,
										"__presetid" : "silbatoSampler_v3",
										"micGain" : 										{
											"value" : 0.0
										}
,
										"hiThresh" : 										{
											"value" : 0.3
										}
,
										"endSustainGrave" : 										{
											"value" : 4868.68497571482294
										}
,
										"cutoffFreq" : 										{
											"value" : 16.0
										}
,
										"lowThresh" : 										{
											"value" : 0.05
										}
,
										"initSustainAgudo" : 										{
											"value" : 306.235838260290393
										}
,
										"micLevelRMSupdateTime" : 										{
											"value" : 200.0
										}
,
										"__sps" : 										{
											"filtroNOTEON-OFF[3]" : 											{

											}
,
											"samplerSilbatoNotaGrave[1]" : 											{
												"__sps" : 												{
													"seccionSustain" : 													{

													}

												}

											}
,
											"samplerSilbatoNotaAguda[1]" : 											{
												"__sps" : 												{
													"seccionSustain" : 													{

													}

												}

											}
,
											"filtroNOTEON-OFF[2]" : 											{

											}

										}

									}
,
									"fileref" : 									{
										"name" : "silbatoSampler_v3",
										"filename" : "silbatoSampler_v3.maxsnap",
										"filepath" : "~/Documents/Max 8/Snapshots",
										"filepos" : -1,
										"snapshotfileid" : "6a20934b566568e7085230a459d785be"
									}

								}
 ]
						}

					}
,
					"text" : "rnbo~ silbatoSampler_v3",
					"varname" : "rnbo~[1]"
				}

			}
, 			{
				"box" : 				{
					"id" : "obj-78",
					"maxclass" : "number",
					"numinlets" : 1,
					"numoutlets" : 2,
					"outlettype" : [ "", "bang" ],
					"parameter_enable" : 0,
					"patching_rect" : [ 398.0, 538.0, 50.0, 22.0 ]
				}

			}
, 			{
				"box" : 				{
					"id" : "obj-76",
					"maxclass" : "number",
					"numinlets" : 1,
					"numoutlets" : 2,
					"outlettype" : [ "", "bang" ],
					"parameter_enable" : 0,
					"patching_rect" : [ 81.0, 543.0, 50.0, 22.0 ]
				}

			}
, 			{
				"box" : 				{
					"id" : "obj-74",
					"maxclass" : "message",
					"numinlets" : 2,
					"numoutlets" : 1,
					"outlettype" : [ "" ],
					"patching_rect" : [ 424.0, 564.0, 50.0, 22.0 ],
					"text" : "1 65 0"
				}

			}
, 			{
				"box" : 				{
					"id" : "obj-71",
					"maxclass" : "newobj",
					"numinlets" : 1,
					"numoutlets" : 1,
					"outlettype" : [ "int" ],
					"patching_rect" : [ 382.0, 693.0, 22.0, 22.0 ],
					"text" : "t 0"
				}

			}
, 			{
				"box" : 				{
					"id" : "obj-72",
					"maxclass" : "newobj",
					"numinlets" : 1,
					"numoutlets" : 1,
					"outlettype" : [ "int" ],
					"patching_rect" : [ 409.0, 693.0, 22.0, 22.0 ],
					"text" : "t 1"
				}

			}
, 			{
				"box" : 				{
					"id" : "obj-70",
					"maxclass" : "newobj",
					"numinlets" : 1,
					"numoutlets" : 1,
					"outlettype" : [ "int" ],
					"patching_rect" : [ 289.0, 693.0, 22.0, 22.0 ],
					"text" : "t 0"
				}

			}
, 			{
				"box" : 				{
					"id" : "obj-67",
					"maxclass" : "newobj",
					"numinlets" : 1,
					"numoutlets" : 1,
					"outlettype" : [ "int" ],
					"patching_rect" : [ 316.0, 693.0, 22.0, 22.0 ],
					"text" : "t 1"
				}

			}
, 			{
				"box" : 				{
					"id" : "obj-65",
					"maxclass" : "newobj",
					"numinlets" : 1,
					"numoutlets" : 2,
					"outlettype" : [ "int", "int" ],
					"patching_rect" : [ 342.0, 628.0, 59.0, 22.0 ],
					"text" : "unpack i i"
				}

			}
, 			{
				"box" : 				{
					"id" : "obj-66",
					"maxclass" : "newobj",
					"numinlets" : 2,
					"numoutlets" : 2,
					"outlettype" : [ "bang", "" ],
					"patching_rect" : [ 382.0, 656.0, 34.0, 22.0 ],
					"text" : "sel 0"
				}

			}
, 			{
				"box" : 				{
					"id" : "obj-64",
					"maxclass" : "newobj",
					"numinlets" : 1,
					"numoutlets" : 2,
					"outlettype" : [ "int", "int" ],
					"patching_rect" : [ 252.0, 628.0, 59.0, 22.0 ],
					"text" : "unpack i i"
				}

			}
, 			{
				"box" : 				{
					"id" : "obj-63",
					"maxclass" : "newobj",
					"numinlets" : 2,
					"numoutlets" : 2,
					"outlettype" : [ "bang", "" ],
					"patching_rect" : [ 292.0, 656.0, 34.0, 22.0 ],
					"text" : "sel 0"
				}

			}
, 			{
				"box" : 				{
					"id" : "obj-62",
					"maxclass" : "newobj",
					"numinlets" : 3,
					"numoutlets" : 1,
					"outlettype" : [ "" ],
					"patching_rect" : [ 149.0, 572.0, 52.0, 22.0 ],
					"text" : "pack i i i"
				}

			}
, 			{
				"box" : 				{
					"id" : "obj-59",
					"maxclass" : "newobj",
					"numinlets" : 3,
					"numoutlets" : 3,
					"outlettype" : [ "", "", "" ],
					"patching_rect" : [ 150.0, 602.0, 56.0, 22.0 ],
					"text" : "route 1 2"
				}

			}
, 			{
				"box" : 				{
					"id" : "obj-58",
					"maxclass" : "newobj",
					"numinlets" : 2,
					"numoutlets" : 4,
					"outlettype" : [ "int", "int", "int", "list" ],
					"patching_rect" : [ 149.0, 538.0, 50.5, 22.0 ],
					"text" : "poly 2"
				}

			}
, 			{
				"box" : 				{
					"id" : "obj-57",
					"maxclass" : "newobj",
					"numinlets" : 1,
					"numoutlets" : 3,
					"outlettype" : [ "int", "int", "int" ],
					"patching_rect" : [ 81.0, 425.0, 41.0, 22.0 ],
					"text" : "notein"
				}

			}
, 			{
				"box" : 				{
					"id" : "obj-56",
					"inputmode" : 1,
					"maxclass" : "kslider",
					"mode" : 1,
					"numinlets" : 2,
					"numoutlets" : 2,
					"outlettype" : [ "int", "int" ],
					"parameter_enable" : 0,
					"patching_rect" : [ 81.0, 476.0, 336.0, 53.0 ]
				}

			}
, 			{
				"box" : 				{
					"id" : "obj-49",
					"maxclass" : "toggle",
					"numinlets" : 1,
					"numoutlets" : 1,
					"outlettype" : [ "int" ],
					"parameter_enable" : 0,
					"patching_rect" : [ 115.0, 283.0, 24.0, 24.0 ]
				}

			}
, 			{
				"box" : 				{
					"id" : "obj-41",
					"maxclass" : "toggle",
					"numinlets" : 1,
					"numoutlets" : 1,
					"outlettype" : [ "int" ],
					"parameter_enable" : 0,
					"patching_rect" : [ 43.0, 283.0, 24.0, 24.0 ]
				}

			}
, 			{
				"box" : 				{
					"id" : "obj-38",
					"maxclass" : "message",
					"numinlets" : 2,
					"numoutlets" : 1,
					"outlettype" : [ "" ],
					"patching_rect" : [ 842.0, 44.0, 81.0, 22.0 ],
					"text" : "normalize 0.6"
				}

			}
, 			{
				"box" : 				{
					"id" : "obj-37",
					"maxclass" : "button",
					"numinlets" : 1,
					"numoutlets" : 1,
					"outlettype" : [ "bang" ],
					"parameter_enable" : 0,
					"patching_rect" : [ 281.5, 0.0, 24.0, 24.0 ]
				}

			}
, 			{
				"box" : 				{
					"format" : 6,
					"id" : "obj-31",
					"maxclass" : "flonum",
					"numinlets" : 1,
					"numoutlets" : 2,
					"outlettype" : [ "", "bang" ],
					"parameter_enable" : 0,
					"patching_rect" : [ 154.0, 122.0, 50.0, 22.0 ]
				}

			}
, 			{
				"box" : 				{
					"id" : "obj-3",
					"maxclass" : "newobj",
					"numinlets" : 2,
					"numoutlets" : 1,
					"outlettype" : [ "signal" ],
					"patching_rect" : [ 47.0, 121.0, 34.0, 22.0 ],
					"text" : "*~ 1."
				}

			}
, 			{
				"box" : 				{
					"id" : "obj-48",
					"maxclass" : "message",
					"numinlets" : 2,
					"numoutlets" : 1,
					"outlettype" : [ "" ],
					"patching_rect" : [ 732.0, 44.0, 81.0, 22.0 ],
					"text" : "normalize 0.4"
				}

			}
, 			{
				"box" : 				{
					"id" : "obj-46",
					"maxclass" : "preset",
					"numinlets" : 1,
					"numoutlets" : 5,
					"outlettype" : [ "preset", "int", "preset", "int", "" ],
					"patching_rect" : [ 442.0, 399.0, 100.0, 40.0 ],
					"preset_data" : [ 						{
							"number" : 1,
							"data" : [ 5, "<invalid>", "attrui", "attr", "initSustainGrave", 5, "<invalid>", "attrui", "float", 0.0, 5, "<invalid>", "attrui", "attr", "endSustainGrave", 5, "<invalid>", "attrui", "float", 0.0, 5, "<invalid>", "attrui", "attr", "endSustainAgudo", 5, "<invalid>", "attrui", "float", 0.0, 5, "<invalid>", "attrui", "attr", "initSustainAgudo", 5, "<invalid>", "attrui", "float", 0.0, 5, "obj-15", "number", "int", 0, 5, "<invalid>", "flonum", "float", 47.0, 5, "<invalid>", "flonum", "float", -29.0 ]
						}
, 						{
							"number" : 2,
							"data" : [ 5, "<invalid>", "attrui", "attr", "initSustainGrave", 5, "<invalid>", "attrui", "float", 269.5, 5, "<invalid>", "attrui", "attr", "endSustainGrave", 5, "<invalid>", "attrui", "float", 4930.0, 5, "<invalid>", "attrui", "attr", "endSustainAgudo", 5, "<invalid>", "attrui", "float", 2889.0, 5, "<invalid>", "attrui", "attr", "initSustainAgudo", 5, "<invalid>", "attrui", "float", 298.100000000000023, 5, "obj-15", "number", "int", 128, 5, "<invalid>", "flonum", "float", 47.0, 5, "<invalid>", "flonum", "float", -29.0 ]
						}
 ]
				}

			}
, 			{
				"box" : 				{
					"id" : "obj-39",
					"maxclass" : "newobj",
					"numinlets" : 1,
					"numoutlets" : 0,
					"patching_rect" : [ 81.0, 51.0, 88.0, 22.0 ],
					"text" : "send~ #0-send"
				}

			}
, 			{
				"box" : 				{
					"id" : "obj-21",
					"maxclass" : "message",
					"numinlets" : 2,
					"numoutlets" : 1,
					"outlettype" : [ "" ],
					"patching_rect" : [ 500.0, 44.0, 215.0, 22.0 ],
					"text" : "replace 2961_largo_suave_agudo.wav"
				}

			}
, 			{
				"box" : 				{
					"id" : "obj-18",
					"maxclass" : "newobj",
					"numinlets" : 1,
					"numoutlets" : 2,
					"outlettype" : [ "float", "bang" ],
					"patching_rect" : [ 463.0, 130.0, 159.0, 22.0 ],
					"text" : "buffer~ sampleSilbatoAgudo"
				}

			}
, 			{
				"box" : 				{
					"id" : "obj-15",
					"maxclass" : "number",
					"numinlets" : 1,
					"numoutlets" : 2,
					"outlettype" : [ "", "bang" ],
					"parameter_enable" : 0,
					"patching_rect" : [ 201.0, 51.0, 50.0, 22.0 ]
				}

			}
, 			{
				"box" : 				{
					"id" : "obj-12",
					"maxclass" : "message",
					"numinlets" : 2,
					"numoutlets" : 1,
					"outlettype" : [ "" ],
					"patching_rect" : [ 281.5, 44.0, 211.0, 22.0 ],
					"text" : "replace 2961_largo_suave_grave.wav"
				}

			}
, 			{
				"box" : 				{
					"id" : "obj-10",
					"maxclass" : "newobj",
					"numinlets" : 1,
					"numoutlets" : 2,
					"outlettype" : [ "float", "bang" ],
					"patching_rect" : [ 281.5, 130.0, 157.0, 22.0 ],
					"text" : "buffer~ sampleSilbatoGrave"
				}

			}
, 			{
				"box" : 				{
					"id" : "obj-4",
					"maxclass" : "live.scope~",
					"numinlets" : 2,
					"numoutlets" : 1,
					"outlettype" : [ "bang" ],
					"patching_rect" : [ 100.0, 177.0, 184.0, 68.0 ]
				}

			}
, 			{
				"box" : 				{
					"id" : "obj-2",
					"maxclass" : "ezadc~",
					"numinlets" : 1,
					"numoutlets" : 2,
					"outlettype" : [ "signal", "signal" ],
					"patching_rect" : [ 17.0, 7.0, 45.0, 45.0 ]
				}

			}
, 			{
				"box" : 				{
					"id" : "obj-29",
					"maxclass" : "message",
					"numinlets" : 2,
					"numoutlets" : 1,
					"outlettype" : [ "" ],
					"patching_rect" : [ 43.0, 335.0, 69.0, 22.0 ],
					"text" : "notaAlta $1"
				}

			}
, 			{
				"box" : 				{
					"id" : "obj-32",
					"maxclass" : "message",
					"numinlets" : 2,
					"numoutlets" : 1,
					"outlettype" : [ "" ],
					"patching_rect" : [ 115.0, 335.0, 73.0, 22.0 ],
					"text" : "notaBaja $1"
				}

			}
, 			{
				"box" : 				{
					"attr" : "snapto",
					"id" : "obj-27",
					"maxclass" : "attrui",
					"numinlets" : 1,
					"numoutlets" : 1,
					"outlettype" : [ "" ],
					"parameter_enable" : 0,
					"patching_rect" : [ 773.0, 92.0, 150.0, 22.0 ]
				}

			}
, 			{
				"box" : 				{
					"attr" : "setmode",
					"id" : "obj-28",
					"maxclass" : "attrui",
					"numinlets" : 1,
					"numoutlets" : 1,
					"outlettype" : [ "" ],
					"parameter_enable" : 0,
					"patching_rect" : [ 926.0, 92.0, 150.0, 22.0 ]
				}

			}
, 			{
				"box" : 				{
					"attr" : "initSustainGrave",
					"id" : "obj-35",
					"maxclass" : "attrui",
					"numinlets" : 1,
					"numoutlets" : 1,
					"outlettype" : [ "" ],
					"parameter_enable" : 0,
					"patching_rect" : [ 799.0, 415.0, 150.0, 22.0 ]
				}

			}
, 			{
				"box" : 				{
					"attr" : "endSustainGrave",
					"id" : "obj-36",
					"maxclass" : "attrui",
					"numinlets" : 1,
					"numoutlets" : 1,
					"outlettype" : [ "" ],
					"parameter_enable" : 0,
					"patching_rect" : [ 952.0, 415.0, 150.0, 22.0 ]
				}

			}
, 			{
				"box" : 				{
					"attr" : "initSustainAgudo",
					"id" : "obj-17",
					"maxclass" : "attrui",
					"numinlets" : 1,
					"numoutlets" : 1,
					"outlettype" : [ "" ],
					"parameter_enable" : 0,
					"patching_rect" : [ 1514.0, 415.0, 150.0, 22.0 ]
				}

			}
, 			{
				"box" : 				{
					"attr" : "endSustainAgudo",
					"id" : "obj-20",
					"maxclass" : "attrui",
					"numinlets" : 1,
					"numoutlets" : 1,
					"outlettype" : [ "" ],
					"parameter_enable" : 0,
					"patching_rect" : [ 1678.0, 415.0, 150.0, 22.0 ]
				}

			}
 ],
		"lines" : [ 			{
				"patchline" : 				{
					"destination" : [ "obj-12", 0 ],
					"order" : 1,
					"source" : [ "obj-1", 0 ]
				}

			}
, 			{
				"patchline" : 				{
					"destination" : [ "obj-21", 0 ],
					"order" : 0,
					"source" : [ "obj-1", 0 ]
				}

			}
, 			{
				"patchline" : 				{
					"destination" : [ "obj-7", 0 ],
					"source" : [ "obj-11", 0 ]
				}

			}
, 			{
				"patchline" : 				{
					"destination" : [ "obj-10", 0 ],
					"source" : [ "obj-12", 0 ]
				}

			}
, 			{
				"patchline" : 				{
					"destination" : [ "obj-13", 1 ],
					"order" : 0,
					"source" : [ "obj-14", 0 ]
				}

			}
, 			{
				"patchline" : 				{
					"destination" : [ "obj-13", 0 ],
					"order" : 1,
					"source" : [ "obj-14", 0 ]
				}

			}
, 			{
				"patchline" : 				{
					"destination" : [ "obj-19", 0 ],
					"source" : [ "obj-16", 2 ]
				}

			}
, 			{
				"patchline" : 				{
					"destination" : [ "obj-26", 0 ],
					"source" : [ "obj-16", 3 ]
				}

			}
, 			{
				"patchline" : 				{
					"destination" : [ "obj-8", 0 ],
					"source" : [ "obj-17", 0 ]
				}

			}
, 			{
				"patchline" : 				{
					"destination" : [ "obj-35", 0 ],
					"source" : [ "obj-19", 0 ]
				}

			}
, 			{
				"patchline" : 				{
					"destination" : [ "obj-3", 0 ],
					"source" : [ "obj-2", 0 ]
				}

			}
, 			{
				"patchline" : 				{
					"destination" : [ "obj-39", 0 ],
					"disabled" : 1,
					"source" : [ "obj-2", 0 ]
				}

			}
, 			{
				"patchline" : 				{
					"destination" : [ "obj-8", 0 ],
					"source" : [ "obj-20", 0 ]
				}

			}
, 			{
				"patchline" : 				{
					"destination" : [ "obj-18", 0 ],
					"source" : [ "obj-21", 0 ]
				}

			}
, 			{
				"patchline" : 				{
					"destination" : [ "obj-36", 0 ],
					"source" : [ "obj-26", 0 ]
				}

			}
, 			{
				"patchline" : 				{
					"destination" : [ "obj-16", 0 ],
					"source" : [ "obj-27", 0 ]
				}

			}
, 			{
				"patchline" : 				{
					"destination" : [ "obj-16", 0 ],
					"source" : [ "obj-28", 0 ]
				}

			}
, 			{
				"patchline" : 				{
					"destination" : [ "obj-4", 0 ],
					"order" : 1,
					"source" : [ "obj-3", 0 ]
				}

			}
, 			{
				"patchline" : 				{
					"destination" : [ "obj-8", 0 ],
					"order" : 0,
					"source" : [ "obj-3", 0 ]
				}

			}
, 			{
				"patchline" : 				{
					"destination" : [ "obj-3", 1 ],
					"source" : [ "obj-31", 0 ]
				}

			}
, 			{
				"patchline" : 				{
					"destination" : [ "obj-8", 0 ],
					"source" : [ "obj-35", 0 ]
				}

			}
, 			{
				"patchline" : 				{
					"destination" : [ "obj-8", 0 ],
					"source" : [ "obj-36", 0 ]
				}

			}
, 			{
				"patchline" : 				{
					"destination" : [ "obj-12", 0 ],
					"order" : 1,
					"source" : [ "obj-37", 0 ]
				}

			}
, 			{
				"patchline" : 				{
					"destination" : [ "obj-21", 0 ],
					"order" : 0,
					"source" : [ "obj-37", 0 ]
				}

			}
, 			{
				"patchline" : 				{
					"destination" : [ "obj-10", 0 ],
					"midpoints" : [ 851.5, 78.0, 291.0, 78.0 ],
					"order" : 1,
					"source" : [ "obj-38", 0 ]
				}

			}
, 			{
				"patchline" : 				{
					"destination" : [ "obj-18", 0 ],
					"midpoints" : [ 851.5, 78.0, 472.5, 78.0 ],
					"order" : 0,
					"source" : [ "obj-38", 0 ]
				}

			}
, 			{
				"patchline" : 				{
					"destination" : [ "obj-10", 0 ],
					"midpoints" : [ 950.5, 78.0, 291.0, 78.0 ],
					"order" : 1,
					"source" : [ "obj-40", 0 ]
				}

			}
, 			{
				"patchline" : 				{
					"destination" : [ "obj-18", 0 ],
					"midpoints" : [ 950.5, 78.0, 472.5, 78.0 ],
					"order" : 0,
					"source" : [ "obj-40", 0 ]
				}

			}
, 			{
				"patchline" : 				{
					"destination" : [ "obj-29", 0 ],
					"source" : [ "obj-41", 0 ]
				}

			}
, 			{
				"patchline" : 				{
					"destination" : [ "obj-10", 0 ],
					"midpoints" : [ 1050.5, 78.0, 291.0, 78.0 ],
					"order" : 1,
					"source" : [ "obj-42", 0 ]
				}

			}
, 			{
				"patchline" : 				{
					"destination" : [ "obj-18", 0 ],
					"midpoints" : [ 1050.5, 78.0, 472.5, 78.0 ],
					"order" : 0,
					"source" : [ "obj-42", 0 ]
				}

			}
, 			{
				"patchline" : 				{
					"destination" : [ "obj-18", 0 ],
					"midpoints" : [ 741.5, 79.0, 472.5, 79.0 ],
					"source" : [ "obj-48", 0 ]
				}

			}
, 			{
				"patchline" : 				{
					"destination" : [ "obj-32", 0 ],
					"source" : [ "obj-49", 0 ]
				}

			}
, 			{
				"patchline" : 				{
					"destination" : [ "obj-20", 0 ],
					"source" : [ "obj-5", 0 ]
				}

			}
, 			{
				"patchline" : 				{
					"destination" : [ "obj-58", 1 ],
					"order" : 1,
					"source" : [ "obj-56", 1 ]
				}

			}
, 			{
				"patchline" : 				{
					"destination" : [ "obj-58", 0 ],
					"order" : 0,
					"source" : [ "obj-56", 0 ]
				}

			}
, 			{
				"patchline" : 				{
					"destination" : [ "obj-76", 0 ],
					"order" : 1,
					"source" : [ "obj-56", 0 ]
				}

			}
, 			{
				"patchline" : 				{
					"destination" : [ "obj-78", 0 ],
					"order" : 0,
					"source" : [ "obj-56", 1 ]
				}

			}
, 			{
				"patchline" : 				{
					"destination" : [ "obj-56", 1 ],
					"source" : [ "obj-57", 1 ]
				}

			}
, 			{
				"patchline" : 				{
					"destination" : [ "obj-56", 0 ],
					"source" : [ "obj-57", 0 ]
				}

			}
, 			{
				"patchline" : 				{
					"destination" : [ "obj-62", 2 ],
					"source" : [ "obj-58", 2 ]
				}

			}
, 			{
				"patchline" : 				{
					"destination" : [ "obj-62", 1 ],
					"source" : [ "obj-58", 1 ]
				}

			}
, 			{
				"patchline" : 				{
					"destination" : [ "obj-62", 0 ],
					"source" : [ "obj-58", 0 ]
				}

			}
, 			{
				"patchline" : 				{
					"destination" : [ "obj-64", 0 ],
					"source" : [ "obj-59", 0 ]
				}

			}
, 			{
				"patchline" : 				{
					"destination" : [ "obj-65", 0 ],
					"source" : [ "obj-59", 1 ]
				}

			}
, 			{
				"patchline" : 				{
					"destination" : [ "obj-17", 0 ],
					"source" : [ "obj-6", 0 ]
				}

			}
, 			{
				"patchline" : 				{
					"destination" : [ "obj-59", 0 ],
					"order" : 1,
					"source" : [ "obj-62", 0 ]
				}

			}
, 			{
				"patchline" : 				{
					"destination" : [ "obj-74", 1 ],
					"order" : 0,
					"source" : [ "obj-62", 0 ]
				}

			}
, 			{
				"patchline" : 				{
					"destination" : [ "obj-67", 0 ],
					"source" : [ "obj-63", 1 ]
				}

			}
, 			{
				"patchline" : 				{
					"destination" : [ "obj-70", 0 ],
					"source" : [ "obj-63", 0 ]
				}

			}
, 			{
				"patchline" : 				{
					"destination" : [ "obj-63", 0 ],
					"source" : [ "obj-64", 1 ]
				}

			}
, 			{
				"patchline" : 				{
					"destination" : [ "obj-66", 0 ],
					"source" : [ "obj-65", 1 ]
				}

			}
, 			{
				"patchline" : 				{
					"destination" : [ "obj-71", 0 ],
					"source" : [ "obj-66", 0 ]
				}

			}
, 			{
				"patchline" : 				{
					"destination" : [ "obj-72", 0 ],
					"source" : [ "obj-66", 1 ]
				}

			}
, 			{
				"patchline" : 				{
					"destination" : [ "obj-41", 0 ],
					"source" : [ "obj-67", 0 ]
				}

			}
, 			{
				"patchline" : 				{
					"destination" : [ "obj-5", 0 ],
					"source" : [ "obj-7", 3 ]
				}

			}
, 			{
				"patchline" : 				{
					"destination" : [ "obj-6", 0 ],
					"source" : [ "obj-7", 2 ]
				}

			}
, 			{
				"patchline" : 				{
					"destination" : [ "obj-41", 0 ],
					"source" : [ "obj-70", 0 ]
				}

			}
, 			{
				"patchline" : 				{
					"destination" : [ "obj-49", 0 ],
					"source" : [ "obj-71", 0 ]
				}

			}
, 			{
				"patchline" : 				{
					"destination" : [ "obj-49", 0 ],
					"source" : [ "obj-72", 0 ]
				}

			}
, 			{
				"patchline" : 				{
					"destination" : [ "obj-14", 0 ],
					"source" : [ "obj-8", 0 ]
				}

			}
, 			{
				"patchline" : 				{
					"destination" : [ "obj-7", 0 ],
					"source" : [ "obj-9", 0 ]
				}

			}
 ],
		"parameters" : 		{
			"obj-14" : [ "live.gain~[1]", "Gain", 0 ],
			"obj-22" : [ "rnbo~", "rnbo~", 0 ],
			"obj-8" : [ "rnbo~[1]", "rnbo~[1]", 0 ],
			"parameterbanks" : 			{
				"0" : 				{
					"index" : 0,
					"name" : "",
					"parameters" : [ "-", "-", "-", "-", "-", "-", "-", "-" ]
				}

			}
,
			"inherited_shortname" : 1
		}
,
		"dependency_cache" : [ 			{
				"name" : "samplerMAPA_v2.maxsnap",
				"bootpath" : "~/Documents/Max 8/Snapshots",
				"patcherrelativepath" : "../../../../../../Max 8/Snapshots",
				"type" : "mx@s",
				"implicit" : 1
			}
, 			{
				"name" : "samplerMAPA_v2.rnbopat",
				"bootpath" : "~/Documents/FREELANCE/2024/INSTRUMENTOS MAPA/SAMPLER/SilbatoSampler-DEMO/rnbo",
				"patcherrelativepath" : ".",
				"type" : "RBOP",
				"implicit" : 1
			}
, 			{
				"name" : "silbatoSampler_v3.maxsnap",
				"bootpath" : "~/Documents/Max 8/Snapshots",
				"patcherrelativepath" : "../../../../../../Max 8/Snapshots",
				"type" : "mx@s",
				"implicit" : 1
			}
, 			{
				"name" : "silbatoSampler_v3.rnbopat",
				"bootpath" : "~/Documents/FREELANCE/2024/INSTRUMENTOS MAPA/SAMPLER/SilbatoSampler-DEMO/rnbo",
				"patcherrelativepath" : ".",
				"type" : "RBOP",
				"implicit" : 1
			}
 ],
		"autosave" : 0
	}

}
